<?xml version="1.0" encoding="UTF-8"?>
<!DOCTYPE svg PUBLIC "-//W3C//DTD SVG 1.1//EN" "http://www.w3.org/Graphics/SVG/1.1/DTD/svg11.dtd">
<!-- Creator: CorelDRAW 2021 (64-Bit) -->
<svg xmlns="http://www.w3.org/2000/svg" xml:space="preserve" width="0.463547in" height="0.428622in" version="1.1" style="shape-rendering:geometricPrecision; text-rendering:geometricPrecision; image-rendering:optimizeQuality; fill-rule:evenodd; clip-rule:evenodd"
viewBox="0 0 20.39 18.85"
 xmlns:xlink="http://www.w3.org/1999/xlink"
 xmlns:xodm="http://www.corel.com/coreldraw/odm/2003">
 <defs>
  <style type="text/css">
   <![CDATA[
    .fil0 {fill:#3F3F46}
   ]]>
  </style>
 </defs>
 <g id="图层_x0020_1">
  <metadata id="CorelCorpID_0Corel-Layer"/>
  <path class="fil0" d="M18.77 18.85l-1.29 0 0 -14.5 1.29 0c0.89,0 1.62,0.72 1.62,1.62l0 11.26c0,0.89 -0.72,1.62 -1.62,1.62zm-2.75 0l0 0 -11.65 0 0 -14.5 1.43 0 0 -2.56c0,-0.89 1.17,-1.8 2.06,-1.8l4.26 0c1.15,-0.04 2.46,1.12 2.46,2.01l0 2.34 1.44 0 0 14.5zm-3.61 -15.82l0 0c0,-0.58 -0.58,-0.93 -1.13,-0.93l-2.08 0c-0.55,0 -1.21,0.35 -1.21,0.93l0 1.33 4.42 0 0 -1.33zm-12.42 14.21l0 0 0 -11.26c0,-0.89 0.72,-1.62 1.62,-1.62l1.29 0 0 14.5 -1.29 0c-0.89,0 -1.62,-0.72 -1.62,-1.62z"/>
 </g>
</svg>
