<?xml version="1.0" encoding="UTF-8"?>
<!DOCTYPE svg PUBLIC "-//W3C//DTD SVG 1.1//EN" "http://www.w3.org/Graphics/SVG/1.1/DTD/svg11.dtd">
<!-- Creator: CorelDRAW 2021 (64-Bit) -->
<svg xmlns="http://www.w3.org/2000/svg" xml:space="preserve" width="0.505217in" height="0.470291in" version="1.1" style="shape-rendering:geometricPrecision; text-rendering:geometricPrecision; image-rendering:optimizeQuality; fill-rule:evenodd; clip-rule:evenodd"
viewBox="0 0 16.89 15.72"
 xmlns:xlink="http://www.w3.org/1999/xlink"
 xmlns:xodm="http://www.corel.com/coreldraw/odm/2003">
 <defs>
  <style type="text/css">
   <![CDATA[
    .fil0 {fill:#3657AD}
    .fil1 {fill:#AED2EB}
   ]]>
  </style>
 </defs>
 <g id="Layer_x0020_1">
  <metadata id="CorelCorpID_0Corel-Layer"/>
  <g id="_1694158557488">
   <path class="fil0" d="M14.27 14.33l-0.98 0 0 -11.02 0.98 0c0.68,0 1.23,0.55 1.23,1.23l0 8.56c0,0.68 -0.55,1.23 -1.23,1.23zm-2.09 0l0 0 -8.86 0 0 -11.02 1.08 0 0 -1.94c0,-0.68 0.89,-1.37 1.57,-1.37l3.24 0c0.87,-0.03 1.87,0.85 1.87,1.53l0 1.78 1.1 0 0 11.02zm-2.74 -12.03l0 0c0,-0.44 -0.44,-0.7 -0.86,-0.7l-1.58 0c-0.42,0 -0.92,0.27 -0.92,0.7l0 1.01 3.36 0 0 -1.01zm-9.44 10.8l0 0 0 -8.56c0,-0.68 0.55,-1.23 1.23,-1.23l0.98 0 0 11.02 -0.98 0c-0.68,0 -1.23,-0.55 -1.23,-1.23z"/>
   <path class="fil1" d="M15.66 15.72l-0.98 0 0 -0.7 0.29 0c0.68,0 1.23,-0.55 1.23,-1.23l0 -8.56c0,-0.16 -0.03,-0.31 -0.08,-0.45 0.46,0.18 0.78,0.62 0.78,1.15l0 8.56c0,0.68 -0.55,1.23 -1.23,1.23zm-2.09 0l-8.86 0 0 -0.7 8.16 0 0.7 0.01 0 0.69zm-9.96 -0.68l0 0.68 -0.98 0c-0.52,0 -0.97,-0.32 -1.15,-0.78 0.14,0.05 0.29,0.08 0.45,0.08l0.98 0 0.7 0.01z"/>
  </g>
 </g>
</svg>
