<?xml version="1.0" encoding="UTF-8"?>
<!DOCTYPE svg PUBLIC "-//W3C//DTD SVG 1.1//EN" "http://www.w3.org/Graphics/SVG/1.1/DTD/svg11.dtd">
<!-- Creator: CorelDRAW 2021 (64-Bit) -->
<svg xmlns="http://www.w3.org/2000/svg" xml:space="preserve" width="0.463547in" height="0.428622in" version="1.1" style="shape-rendering:geometricPrecision; text-rendering:geometricPrecision; image-rendering:optimizeQuality; fill-rule:evenodd; clip-rule:evenodd"
viewBox="0 0 23.05 21.31"
 xmlns:xlink="http://www.w3.org/1999/xlink"
 xmlns:xodm="http://www.corel.com/coreldraw/odm/2003">
 <defs>
  <style type="text/css">
   <![CDATA[
    .fil0 {fill:#18181B}
   ]]>
  </style>
 </defs>
 <g id="图层_x0020_1">
  <metadata id="CorelCorpID_0Corel-Layer"/>
  <path class="fil0" d="M21.22 21.31l-1.46 0 0 -16.39 1.46 0c1.01,0 1.83,0.82 1.83,1.83l0 12.73c0,1.01 -0.82,1.83 -1.83,1.83zm-3.11 0l0 0 -13.17 0 0 -16.39 1.61 0 0 -2.89c0,-1.01 1.32,-2.03 2.33,-2.03l4.82 0c1.3,-0.05 2.78,1.26 2.78,2.27l0 2.65 1.63 0 0 16.39zm-4.08 -17.89l0 0c0,-0.65 -0.65,-1.05 -1.27,-1.05l-2.35 0c-0.62,0 -1.37,0.4 -1.37,1.05l0 1.5 5 0 0 -1.5zm-14.03 16.06l0 0 0 -12.73c0,-1.01 0.82,-1.83 1.83,-1.83l1.46 0 0 16.39 -1.46 0c-1.01,0 -1.83,-0.82 -1.83,-1.83z"/>
 </g>
</svg>
