<?xml version="1.0" encoding="UTF-8"?>
<!DOCTYPE svg PUBLIC "-//W3C//DTD SVG 1.1//EN" "http://www.w3.org/Graphics/SVG/1.1/DTD/svg11.dtd">
<!-- Creator: CorelDRAW 2021 (64-Bit) -->
<svg xmlns="http://www.w3.org/2000/svg" xml:space="preserve" width="0.463547in" height="0.428622in" version="1.1" style="shape-rendering:geometricPrecision; text-rendering:geometricPrecision; image-rendering:optimizeQuality; fill-rule:evenodd; clip-rule:evenodd"
viewBox="0 0 31.18 28.83"
 xmlns:xlink="http://www.w3.org/1999/xlink"
 xmlns:xodm="http://www.corel.com/coreldraw/odm/2003">
 <defs>
  <style type="text/css">
   <![CDATA[
    .fil0 {fill:#3657AD}
   ]]>
  </style>
 </defs>
 <g id="Layer_x0020_1">
  <metadata id="CorelCorpID_0Corel-Layer"/>
  <path class="fil0" d="M28.71 28.83l-1.98 0 0 -22.17 1.98 0c1.37,0 2.47,1.11 2.47,2.48l0 17.22c0,1.37 -1.11,2.47 -2.47,2.47zm-4.2 0l0 0 -17.82 0 0 -22.17 2.18 0 0 -3.91c0,-1.37 1.79,-2.75 3.15,-2.75l6.52 0c1.76,-0.06 3.76,1.71 3.76,3.08l0 3.58 2.2 0 0 22.17zm-5.52 -24.2l0 0c0,-0.88 -0.88,-1.42 -1.72,-1.42l-3.18 0c-0.84,0 -1.85,0.54 -1.85,1.42l0 2.03 6.76 0 0 -2.03zm-18.99 21.72l0 0 0 -17.22c0,-1.37 1.11,-2.48 2.47,-2.48l1.98 0 0 22.17 -1.98 0c-1.37,0 -2.47,-1.11 -2.47,-2.47z"/>
 </g>
</svg>
