<?xml version="1.0" encoding="UTF-8"?>
<!DOCTYPE svg PUBLIC "-//W3C//DTD SVG 1.1//EN" "http://www.w3.org/Graphics/SVG/1.1/DTD/svg11.dtd">
<!-- Creator: CorelDRAW 2021 (64-Bit) -->
<svg xmlns="http://www.w3.org/2000/svg" xml:space="preserve" width="0.503787in" height="0.658996in" version="1.1" style="shape-rendering:geometricPrecision; text-rendering:geometricPrecision; image-rendering:optimizeQuality; fill-rule:evenodd; clip-rule:evenodd"
viewBox="0 0 21.34 27.92"
 xmlns:xlink="http://www.w3.org/1999/xlink"
 xmlns:xodm="http://www.corel.com/coreldraw/odm/2003">
 <defs>
  <style type="text/css">
   <![CDATA[
    .fil0 {fill:#AED2EB}
    .fil1 {fill:#3657AD}
   ]]>
  </style>
 </defs>
 <g id="Layer_x0020_1">
  <metadata id="CorelCorpID_0Corel-Layer"/>
  <g id="_1693155910304">
   <path class="fil0" d="M18.03 4.13c1.91,1.7 3.16,4.14 3.3,6.85l0 0c0,0.08 0.01,0.17 0.01,0.25l0 0c0,0.08 0,0.17 0,0.25l0 15.13c0,0.72 -0.59,1.31 -1.31,1.31l-17.1 0c-0.57,0 -1.06,-0.37 -1.24,-0.89 0.13,0.05 0.27,0.07 0.42,0.07l17.1 0c0.72,0 1.31,-0.59 1.31,-1.31l0 -15.13c0,-0.08 -0,-0.17 -0,-0.25l0 -0c-0,-0.08 -0.01,-0.17 -0.01,-0.25l0 -0c-0.12,-2.31 -1.04,-4.41 -2.49,-6.03z"/>
   <path class="fil1" d="M-0 9.86l0 0c0,-0.25 0.01,-0.5 0.03,-0.74l0 -0.02 0 -0c0.38,-4.9 4.38,-8.83 9.32,-9.08l0 0c0.08,-0 0.17,-0.01 0.25,-0.01l0 0c0.08,-0 0.17,-0 0.25,-0l0 0c0.08,0 0.17,0 0.25,0l0 0c0.08,0 0.17,0.01 0.25,0.01l0 0c5.02,0.26 9.08,4.32 9.34,9.34l0 0c0,0.08 0.01,0.17 0.01,0.25l0 0c0,0.08 0,0.17 0,0.25l0 15.13c0,0.72 -0.59,1.31 -1.31,1.31l-17.1 0c-0.72,0 -1.31,-0.59 -1.31,-1.31l0 -15.13zm4.8 4.6l10.12 0 0 0.81 -10.12 0 0 -0.81zm0 -2.78l10.12 0 0 0.81 -10.12 0 0 -0.81zm0 -5.02l10.12 0 0 1.62 -10.12 0 0 -1.62z"/>
  </g>
 </g>
</svg>
