<?xml version="1.0" encoding="UTF-8"?>
<!DOCTYPE svg PUBLIC "-//W3C//DTD SVG 1.1//EN" "http://www.w3.org/Graphics/SVG/1.1/DTD/svg11.dtd">
<!-- Creator: CorelDRAW 2021 (64-Bit) -->
<svg xmlns="http://www.w3.org/2000/svg" xml:space="preserve" width="0.46528in" height="0.620488in" version="1.1" style="shape-rendering:geometricPrecision; text-rendering:geometricPrecision; image-rendering:optimizeQuality; fill-rule:evenodd; clip-rule:evenodd"
viewBox="0 0 20.41 27.22"
 xmlns:xlink="http://www.w3.org/1999/xlink"
 xmlns:xodm="http://www.corel.com/coreldraw/odm/2003">
 <defs>
  <style type="text/css">
   <![CDATA[
    .fil0 {fill:#3F3F46}
   ]]>
  </style>
 </defs>
 <g id="图层_x0020_1">
  <metadata id="CorelCorpID_0Corel-Layer"/>
  <path class="fil0" d="M-0 10.2l0 0c0,-0.26 0.01,-0.51 0.03,-0.77l0 -0.02 0 -0c0.39,-5.08 4.54,-9.14 9.65,-9.41l0 0c0.09,-0 0.17,-0.01 0.26,-0.01l0 0c0.09,-0 0.17,-0 0.26,-0l0 0c0.09,0 0.17,0 0.26,0l0 0c0.09,0 0.17,0.01 0.26,0.01l0 0c5.2,0.27 9.4,4.47 9.67,9.67l0 0c0,0.09 0.01,0.17 0.01,0.26l0 0c0,0.09 0,0.17 0,0.26l0 15.66c0,0.74 -0.61,1.35 -1.35,1.35l-17.71 0c-0.74,0 -1.35,-0.61 -1.35,-1.35l0 -15.66zm4.97 4.76l10.47 0 0 0.84 -10.47 0 0 -0.84zm0 -2.88l10.47 0 0 0.84 -10.47 0 0 -0.84zm0 -5.2l10.47 0 0 1.68 -10.47 0 0 -1.68z"/>
 </g>
</svg>
