<?xml version="1.0" encoding="UTF-8"?>
<!DOCTYPE svg PUBLIC "-//W3C//DTD SVG 1.1//EN" "http://www.w3.org/Graphics/SVG/1.1/DTD/svg11.dtd">
<!-- Creator: CorelDRAW 2021 (64-Bit) -->
<svg xmlns="http://www.w3.org/2000/svg" xml:space="preserve" width="0.46528in" height="0.620488in" version="1.1" style="shape-rendering:geometricPrecision; text-rendering:geometricPrecision; image-rendering:optimizeQuality; fill-rule:evenodd; clip-rule:evenodd"
viewBox="0 0 20.05 26.74"
 xmlns:xlink="http://www.w3.org/1999/xlink"
 xmlns:xodm="http://www.corel.com/coreldraw/odm/2003">
 <defs>
  <style type="text/css">
   <![CDATA[
    .fil0 {fill:#3657AD}
   ]]>
  </style>
 </defs>
 <g id="Layer_x0020_1">
  <metadata id="CorelCorpID_0Corel-Layer"/>
  <path class="fil0" d="M-0 10.03l0 0c0,-0.25 0.01,-0.5 0.03,-0.75l0 -0.02 0 -0c0.38,-4.99 4.46,-8.98 9.48,-9.24l0 0c0.08,-0 0.17,-0.01 0.26,-0.01l0 0c0.09,-0 0.17,-0 0.26,-0l0 0c0.09,0 0.17,0 0.26,0l0 0c0.09,0 0.17,0.01 0.25,0.01l0 0c5.11,0.26 9.24,4.39 9.5,9.5l0 0c0,0.08 0.01,0.17 0.01,0.26l0 0c0,0.09 0,0.17 0,0.26l0 15.39c0,0.73 -0.6,1.33 -1.33,1.33l-17.4 0c-0.73,0 -1.33,-0.6 -1.33,-1.33l0 -15.39zm4.88 4.68l10.29 0 0 0.83 -10.29 0 0 -0.83zm0 -2.83l10.29 0 0 0.83 -10.29 0 0 -0.83zm0 -5.11l10.29 0 0 1.65 -10.29 0 0 -1.65z"/>
 </g>
</svg>
