<?xml version="1.0" encoding="UTF-8"?>
<!DOCTYPE svg PUBLIC "-//W3C//DTD SVG 1.1//EN" "http://www.w3.org/Graphics/SVG/1.1/DTD/svg11.dtd">
<!-- Creator: CorelDRAW 2021 (64-Bit) -->
<svg xmlns="http://www.w3.org/2000/svg" xml:space="preserve" width="0.46528in" height="0.620488in" version="1.1" style="shape-rendering:geometricPrecision; text-rendering:geometricPrecision; image-rendering:optimizeQuality; fill-rule:evenodd; clip-rule:evenodd"
viewBox="0 0 23.05 30.74"
 xmlns:xlink="http://www.w3.org/1999/xlink"
 xmlns:xodm="http://www.corel.com/coreldraw/odm/2003">
 <defs>
  <style type="text/css">
   <![CDATA[
    .fil0 {fill:#18181B}
   ]]>
  </style>
 </defs>
 <g id="图层_x0020_1">
  <metadata id="CorelCorpID_0Corel-Layer"/>
  <path class="fil0" d="M-0 11.53l0 0c0,-0.29 0.01,-0.58 0.03,-0.87l0 -0.02 0 -0c0.44,-5.73 5.13,-10.33 10.9,-10.62l0 0c0.1,-0 0.2,-0.01 0.29,-0.01l0 0c0.1,-0 0.2,-0 0.3,-0l0 0c0.1,0 0.2,0 0.3,0l0 0c0.1,0 0.2,0.01 0.29,0.01l0 0c5.87,0.3 10.62,5.05 10.92,10.92l0 0c0,0.1 0.01,0.2 0.01,0.29l0 0c0,0.1 0,0.2 0,0.3l0 17.69c0,0.84 -0.69,1.53 -1.53,1.53l-20 0c-0.84,0 -1.53,-0.69 -1.53,-1.53l0 -17.69zm5.61 5.38l11.83 0 0 0.95 -11.83 0 0 -0.95zm0 -3.25l11.83 0 0 0.95 -11.83 0 0 -0.95zm0 -5.87l11.83 0 0 1.9 -11.83 0 0 -1.9z"/>
 </g>
</svg>
