<?xml version="1.0" encoding="UTF-8"?>
<!DOCTYPE svg PUBLIC "-//W3C//DTD SVG 1.1//EN" "http://www.w3.org/Graphics/SVG/1.1/DTD/svg11.dtd">
<!-- Creator: CorelDRAW 2021 (64-Bit) -->
<svg xmlns="http://www.w3.org/2000/svg" xml:space="preserve" width="2.91812in" height="2.74961in" version="1.1" style="shape-rendering:geometricPrecision; text-rendering:geometricPrecision; image-rendering:optimizeQuality; fill-rule:evenodd; clip-rule:evenodd"
viewBox="0 0 757.96 714.19"
 xmlns:xlink="http://www.w3.org/1999/xlink"
 xmlns:xodm="http://www.corel.com/coreldraw/odm/2003">
 <defs>
  <style type="text/css">
   <![CDATA[
    .fil0 {fill:white;fill-rule:nonzero}
   ]]>
  </style>
 </defs>
 <g id="Layer_x0020_1">
  <metadata id="CorelCorpID_0Corel-Layer"/>
  <path class="fil0" d="M551.98 0l0 378.69 -376.52 0 0 -378.69 376.52 0zm-209.9 335.39l0 -216.31 43.29 0 0 216.31 37.97 0 0 -128.68 43.29 0 0 128.68 44.23 0 0 -292.1 -294.27 0 0 292.1 44.23 0 0 -128.68 43.29 0 0 128.68 37.97 0z"/>
  <polygon class="fil0" points="-0,484.95 17.91,484.95 31.86,546.3 49.01,484.95 64.16,484.95 81.65,546.3 95.57,484.95 113.51,484.95 91.69,581.06 74.2,581.06 56.48,518.93 39.11,581.06 21.86,581.06 "/>
  <path id="_1" class="fil0" d="M159.17 508.24c6.72,0 13.03,1.67 18.94,5.02 5.93,3.35 10.53,7.88 13.85,13.61 3.32,5.76 4.97,11.93 4.97,18.58 0,6.69 -1.67,12.94 -5,18.76 -3.35,5.82 -7.9,10.37 -13.65,13.65 -5.78,3.28 -12.11,4.93 -19.05,4.93 -10.22,0 -18.94,-3.61 -26.15,-10.84 -7.23,-7.25 -10.84,-16.04 -10.84,-26.37 0,-11.09 4.08,-20.32 12.25,-27.71 7.16,-6.43 15.37,-9.64 24.67,-9.64zm0.27 16.73c-5.55,0 -10.17,1.92 -13.85,5.76 -3.68,3.86 -5.53,8.77 -5.53,14.77 0,6.16 1.83,11.15 5.47,14.97 3.64,3.82 8.25,5.73 13.85,5.73 5.58,0 10.22,-1.94 13.94,-5.8 3.7,-3.86 5.55,-8.83 5.55,-14.9 0,-6.09 -1.83,-11.02 -5.46,-14.83 -3.64,-3.79 -8.3,-5.69 -13.97,-5.69z"/>
  <path id="_2" class="fil0" d="M207.27 509.98l15.39 0 0 9.03c1.65,-3.52 3.84,-6.2 6.56,-8.03 2.74,-1.83 5.73,-2.74 8.97,-2.74 2.3,0 4.71,0.6 7.23,1.83l-5.53 15.39c-2.07,-1.05 -3.79,-1.56 -5.13,-1.56 -2.72,0 -5.04,1.7 -6.92,5.09 -1.9,3.39 -2.83,10.04 -2.83,19.94l0.07 3.46 0 28.67 -17.8 0 0 -71.08z"/>
  <polygon id="_3" class="fil0" points="254.36,482.54 272.17,482.54 272.17,539.27 298.49,509.98 320.73,509.98 290.28,543.91 324.57,581.06 302.42,581.06 272.17,548.29 272.17,581.06 254.36,581.06 "/>
  <path id="_4" class="fil0" d="M421.79 498.02l-13.56 11.96c-4.75,-6.6 -9.59,-9.9 -14.52,-9.9 -2.41,0 -4.37,0.65 -5.89,1.92 -1.54,1.29 -2.3,2.74 -2.3,4.35 0,1.61 0.53,3.15 1.63,4.57 1.5,1.92 5.98,6.02 13.45,12.34 6.98,5.85 11.22,9.53 12.72,11.04 3.7,3.75 6.34,7.32 7.9,10.73 1.54,3.44 2.32,7.16 2.32,11.2 0,7.9 -2.72,14.39 -8.19,19.54 -5.44,5.13 -12.56,7.7 -21.35,7.7 -6.85,0 -12.81,-1.67 -17.89,-5.02 -5.09,-3.37 -9.46,-8.63 -13.07,-15.82l15.41 -9.28c4.64,8.48 9.97,12.72 16,12.72 3.15,0 5.8,-0.91 7.94,-2.74 2.14,-1.83 3.21,-3.95 3.21,-6.34 0,-2.16 -0.8,-4.35 -2.43,-6.54 -1.61,-2.16 -5.18,-5.51 -10.69,-9.99 -10.48,-8.52 -17.24,-15.1 -20.3,-19.74 -3.06,-4.64 -4.6,-9.26 -4.6,-13.88 0,-6.67 2.54,-12.38 7.61,-17.13 5.09,-4.77 11.36,-7.16 18.81,-7.16 4.8,0 9.37,1.12 13.7,3.32 4.35,2.23 9.04,6.27 14.1,12.16z"/>
  <path id="_5" class="fil0" d="M491.53 509.98l17.8 0 0 71.08 -17.8 0 0 -7.56c-3.48,3.3 -6.98,5.67 -10.49,7.12 -3.5,1.45 -7.32,2.19 -11.4,2.19 -9.21,0 -17.16,-3.55 -23.87,-10.66 -6.71,-7.09 -10.06,-15.93 -10.06,-26.48 0,-10.95 3.26,-19.92 9.75,-26.93 6.49,-6.98 14.37,-10.48 23.65,-10.48 4.28,0 8.28,0.8 12.02,2.39 3.75,1.58 7.21,3.99 10.4,7.16l0 -7.81zm-18.76 14.59c-5.53,0 -10.13,1.94 -13.76,5.85 -3.66,3.88 -5.49,8.88 -5.49,14.97 0,6.13 1.85,11.18 5.58,15.15 3.73,3.95 8.3,5.93 13.74,5.93 5.6,0 10.26,-1.94 13.94,-5.85 3.7,-3.88 5.55,-8.99 5.55,-15.3 0,-6.18 -1.85,-11.18 -5.55,-15.01 -3.68,-3.82 -8.37,-5.73 -14.01,-5.73z"/>
  <path id="_6" class="fil0" d="M518.86 509.98l6.29 0c0.04,-9.3 0.2,-14.79 0.45,-16.49 0.49,-3.9 2.12,-7 4.91,-9.28 2.81,-2.28 6.76,-3.41 11.87,-3.41 3.7,0 7.85,0.85 12.49,2.54l0 13.56c-2.57,-0.74 -4.66,-1.12 -6.31,-1.12 -2.07,0 -3.59,0.42 -4.55,1.29 -0.69,0.65 -1.05,2.01 -1.05,4.04l-0.07 8.86 11.31 0 0 15.13 -11.24 0 0 55.95 -17.8 0 0 -55.95 -6.29 0 0 -15.13z"/>
  <path id="_7" class="fil0" d="M635.89 550.54l-57.22 0c0.83,5.06 3.03,9.1 6.6,12.11 3.57,2.99 8.14,4.48 13.68,4.48 6.65,0 12.34,-2.34 17.11,-7.03l14.95 7.07c-3.73,5.31 -8.21,9.24 -13.41,11.8 -5.22,2.54 -11.4,3.82 -18.56,3.82 -11.11,0 -20.17,-3.5 -27.15,-10.53 -6.98,-7 -10.48,-15.8 -10.48,-26.35 0,-10.82 3.5,-19.81 10.48,-26.95 6.98,-7.16 15.73,-10.73 26.28,-10.73 11.18,0 20.28,3.57 27.28,10.69 7,7.14 10.51,16.53 10.51,28.24l-0.07 3.37zm-17.74 -13.92c-1.18,-3.88 -3.5,-7.05 -6.96,-9.48 -3.48,-2.43 -7.5,-3.64 -12.09,-3.64 -4.97,0 -9.33,1.36 -13.1,4.1 -2.34,1.7 -4.53,4.71 -6.54,9.01l38.68 0z"/>
  <polygon id="_8" class="fil0" points="652.57,483.75 670.38,483.75 670.38,509.98 680.95,509.98 680.95,525.38 670.38,525.38 670.38,581.06 652.57,581.06 652.57,525.38 643.47,525.38 643.47,509.98 652.57,509.98 "/>
  <polygon id="_9" class="fil0" points="682.62,509.98 700.92,509.98 719.32,554.49 739.71,509.98 757.96,509.98 713.5,607.02 695.25,607.02 709.71,575.81 "/>
  <polygon id="_10" class="fil0" points="204.01,616.34 222.22,616.34 222.22,712.45 204.01,712.45 "/>
  <path id="_11" class="fil0" d="M240.8 641.37l17.8 0 0 7.32c4.04,-3.39 7.72,-5.73 11,-7.07 3.28,-1.32 6.65,-1.99 10.08,-1.99 7.05,0 13.05,2.45 17.96,7.36 4.13,4.19 6.2,10.37 6.2,18.54l0 46.92 -17.67 0 0 -31.08c0,-8.48 -0.38,-14.1 -1.14,-16.87 -0.76,-2.79 -2.1,-4.91 -3.97,-6.36 -1.9,-1.45 -4.24,-2.19 -7,-2.19 -3.61,0 -6.72,1.2 -9.3,3.61 -2.59,2.41 -4.37,5.76 -5.38,9.99 -0.51,2.23 -0.78,7.03 -0.78,14.41l0 28.47 -17.8 0 0 -71.08z"/>
  <path id="_12" class="fil0" d="M373.74 613.93l17.8 0 0 98.51 -17.8 0 0 -7.56c-3.48,3.3 -6.98,5.67 -10.49,7.12 -3.5,1.45 -7.32,2.19 -11.4,2.19 -9.21,0 -17.16,-3.55 -23.87,-10.66 -6.71,-7.09 -10.06,-15.93 -10.06,-26.48 0,-10.95 3.26,-19.92 9.75,-26.93 6.49,-6.98 14.37,-10.48 23.65,-10.48 4.28,0 8.28,0.8 12.02,2.39 3.75,1.61 7.21,4.02 10.4,7.21l0 -35.29zm-18.76 42.03c-5.53,0 -10.13,1.94 -13.76,5.85 -3.66,3.88 -5.49,8.88 -5.49,14.97 0,6.13 1.85,11.18 5.58,15.15 3.73,3.95 8.3,5.93 13.74,5.93 5.6,0 10.26,-1.94 13.94,-5.85 3.7,-3.88 5.55,-8.99 5.55,-15.3 0,-6.18 -1.85,-11.18 -5.55,-15.01 -3.68,-3.82 -8.37,-5.73 -14.01,-5.73z"/>
  <path id="_13" class="fil0" d="M480.64 681.93l-57.22 0c0.83,5.06 3.03,9.1 6.6,12.11 3.57,2.99 8.14,4.48 13.68,4.48 6.65,0 12.34,-2.34 17.11,-7.03l14.95 7.07c-3.73,5.31 -8.21,9.24 -13.41,11.8 -5.22,2.54 -11.4,3.82 -18.56,3.82 -11.11,0 -20.17,-3.5 -27.15,-10.53 -6.98,-7 -10.48,-15.8 -10.48,-26.35 0,-10.82 3.5,-19.81 10.48,-26.95 6.98,-7.16 15.73,-10.73 26.28,-10.73 11.18,0 20.28,3.57 27.28,10.69 7,7.14 10.51,16.53 10.51,28.24l-0.07 3.37zm-17.74 -13.92c-1.18,-3.88 -3.5,-7.05 -6.96,-9.48 -3.48,-2.43 -7.5,-3.64 -12.09,-3.64 -4.97,0 -9.33,1.36 -13.1,4.1 -2.34,1.7 -4.53,4.71 -6.54,9.01l38.68 0z"/>
  <polygon id="_14" class="fil0" points="488.76,641.37 509.49,641.37 523.54,660.74 537.53,641.37 557.96,641.37 533.78,674.86 561.04,712.45 540.32,712.45 523.45,689.18 506.65,712.45 486.22,712.45 513.19,675.06 "/>
 </g>
</svg>
