<?xml version="1.0" encoding="UTF-8"?>
<!DOCTYPE svg PUBLIC "-//W3C//DTD SVG 1.1//EN" "http://www.w3.org/Graphics/SVG/1.1/DTD/svg11.dtd">
<!-- Creator: CorelDRAW 2021 (64-Bit) -->
<svg xmlns="http://www.w3.org/2000/svg" xml:space="preserve" width="1.57204in" height="1.66929in" version="1.1" style="shape-rendering:geometricPrecision; text-rendering:geometricPrecision; image-rendering:optimizeQuality; fill-rule:evenodd; clip-rule:evenodd"
viewBox="0 0 1681.97 1786.03"
 xmlns:xlink="http://www.w3.org/1999/xlink"
 xmlns:xodm="http://www.corel.com/coreldraw/odm/2003">
 <defs>
  <style type="text/css">
   <![CDATA[
    .fil0 {fill:#FEFEFE}
   ]]>
  </style>
 </defs>
 <g id="Layer_x0020_1">
  <metadata id="CorelCorpID_0Corel-Layer"/>
  <path class="fil0" d="M1578.94 1091.35c-3.93,185.81 -332.82,335.89 -737.96,335.89 -394.33,0 -718.37,-142.42 -737.14,-322.98l2.02 -453.85c-87.61,112.38 -105.86,119.79 -105.86,211.12l0 260.55c0,366.52 368.87,668.46 841.22,663.89 472.35,-4.58 840.75,-297.38 840.75,-663.89l0 -260.55c0,-91.58 0.57,-137.61 -99,-211.67l-3.99 438.13c0,1.12 -0.01,2.24 -0.03,3.36z"/>
  <path class="fil0" d="M840.92 1342.13c358.38,0 649.31,-132.75 652.78,-297.11 0.02,-0.99 0.03,-1.98 0,-2.97l0.03 -436.95c-93.55,-253.08 -281.41,-442.22 -508.37,-499.35l0 583.96c0,79.44 -64.99,144.44 -144.43,144.44 -79.44,0 -144.44,-65 -144.44,-144.44l-0 -583.97c-226.96,57.14 -414.82,246.28 -508.37,499.36 -0.33,0.16 -0.66,0.32 -0.99,0.48l1.74 450.86c16.61,159.71 303.25,285.69 652.06,285.69z"/>
  <path class="fil0" d="M840.92 762.8c50.72,0 92.22,-66.43 92.22,-147.63l0 -596.85c-29.79,-12.01 -60.62,-18.32 -92.22,-18.32 -31.59,0 -62.43,6.31 -92.22,18.31l0 596.86c0,81.2 41.5,147.63 92.22,147.63z"/>
 </g>
</svg>
