<?xml version="1.0" encoding="UTF-8"?>
<!DOCTYPE svg PUBLIC "-//W3C//DTD SVG 1.1//EN" "http://www.w3.org/Graphics/SVG/1.1/DTD/svg11.dtd">
<!-- Creator: CorelDRAW 2021 (64-Bit) -->
<svg xmlns="http://www.w3.org/2000/svg" xml:space="preserve" width="2.16496in" height="1.33996in" version="1.1" style="shape-rendering:geometricPrecision; text-rendering:geometricPrecision; image-rendering:optimizeQuality; fill-rule:evenodd; clip-rule:evenodd"
viewBox="0 0 2484 1537.42"
 xmlns:xlink="http://www.w3.org/1999/xlink"
 xmlns:xodm="http://www.corel.com/coreldraw/odm/2003">
 <defs>
  <style type="text/css">
   <![CDATA[
    .fil0 {fill:#FEFEFE}
   ]]>
  </style>
 </defs>
 <g id="Layer_x0020_1">
  <metadata id="CorelCorpID_0Corel-Layer"/>
  <path class="fil0" d="M2484 821.57l0 42.9c-80.17,-378.01 -458.36,-648.61 -956.38,-660.55 -498.01,-11.94 -881,445.71 -971.28,679.48 1.87,3.82 -0.27,-49.44 -0.71,-65.71 0,-110.87 -7.67,52.47 -4.71,-109.6 127.6,-423.02 652.23,-726.02 979.32,-707.27 512.65,29.38 953.75,423.83 953.75,820.74zm0 349.03l0 273.26c-799.5,164.33 -1645.11,78.53 -2481.19,-2.81l-2.81 -121.83c125.04,-41.84 379.8,-122.84 559.6,-151.22 -1.19,-21.77 1.83,14.4 -1.87,-65.82 0,-306.32 502.82,-845.37 1015.5,-815.96 512.67,29.41 910.77,361.33 910.77,884.37zm-1168.72 55.23l0 -317.21c0,-62.51 25.56,-119.33 66.73,-160.5 41.17,-41.17 97.99,-66.73 160.5,-66.73 62.52,0 119.33,25.56 160.51,66.73 41.17,41.17 66.73,97.99 66.73,160.5l0 317.21 -47.81 0 0 -317.21c0,-49.32 -20.2,-94.18 -52.72,-126.71 -32.53,-32.52 -77.39,-52.72 -126.71,-52.72 -49.32,0 -94.18,20.2 -126.71,52.72 -32.52,32.53 -52.72,77.39 -52.72,126.71l0 317.21 -47.81 0z"/>
 </g>
</svg>
