<?xml version="1.0" encoding="UTF-8"?>
<!DOCTYPE svg PUBLIC "-//W3C//DTD SVG 1.1//EN" "http://www.w3.org/Graphics/SVG/1.1/DTD/svg11.dtd">
<!-- Creator: CorelDRAW 2021 (64-Bit) -->
<svg xmlns="http://www.w3.org/2000/svg" xml:space="preserve" width="0.518362in" height="0.628933in" version="1.1" style="shape-rendering:geometricPrecision; text-rendering:geometricPrecision; image-rendering:optimizeQuality; fill-rule:evenodd; clip-rule:evenodd"
viewBox="0 0 30.2 36.65"
 xmlns:xlink="http://www.w3.org/1999/xlink"
 xmlns:xodm="http://www.corel.com/coreldraw/odm/2003">
 <defs>
  <style type="text/css">
   <![CDATA[
    .fil0 {fill:#3657AD}
   ]]>
  </style>
 </defs>
 <g id="Layer_x0020_1">
  <metadata id="CorelCorpID_0Corel-Layer"/>
  <path class="fil0" d="M26.35 1.31l0.61 0.42c3.4,2.34 4.26,7.03 1.93,10.43l-14.62 21.25c-2.34,3.4 -7.03,4.26 -10.43,1.93l-0.61 -0.42c-3.4,-2.34 -4.26,-7.03 -1.93,-10.43l14.62 -21.25c2.34,-3.4 7.03,-4.26 10.43,-1.93zm-13.85 25.03c0.49,0.34 0.61,1 0.28,1.49 -0.34,0.49 -1,0.61 -1.49,0.28 -0.49,-0.34 -0.61,-1.01 -0.28,-1.49 0.34,-0.49 1.01,-0.61 1.49,-0.28zm12.56 -18.34c0.49,0.34 0.61,1 0.28,1.49 -0.34,0.49 -1,0.61 -1.49,0.28 -0.49,-0.34 -0.61,-1.01 -0.28,-1.49 0.34,-0.49 1.01,-0.61 1.49,-0.28zm-14.83 21.55c0.49,0.34 0.61,1.01 0.28,1.49 -0.34,0.49 -1,0.61 -1.49,0.28 -0.49,-0.34 -0.61,-1 -0.28,-1.49 0.34,-0.49 1,-0.61 1.49,-0.28zm12.56 -18.34c0.49,0.34 0.61,1.01 0.28,1.49 -0.34,0.49 -1,0.61 -1.49,0.28 -0.49,-0.34 -0.61,-1 -0.28,-1.49 0.34,-0.49 1.01,-0.61 1.49,-0.28zm-14.15 12.48c0.49,0.34 0.61,1 0.28,1.49 -0.34,0.49 -1,0.61 -1.49,0.28 -0.49,-0.34 -0.61,-1.01 -0.28,-1.49 0.34,-0.49 1,-0.61 1.49,-0.28zm12.56 -18.34c0.49,0.34 0.61,1 0.28,1.49 -0.34,0.49 -1,0.61 -1.49,0.28 -0.49,-0.34 -0.61,-1.01 -0.28,-1.49 0.34,-0.49 1,-0.61 1.49,-0.28zm-14.83 21.55c0.49,0.34 0.61,1.01 0.28,1.49 -0.34,0.49 -1.01,0.61 -1.49,0.28 -0.49,-0.34 -0.61,-1 -0.28,-1.49 0.34,-0.49 1.01,-0.61 1.49,-0.28zm12.56 -18.34c0.49,0.34 0.61,1.01 0.28,1.49 -0.34,0.49 -1.01,0.61 -1.49,0.28 -0.49,-0.34 -0.61,-1 -0.28,-1.49 0.34,-0.49 1.01,-0.61 1.49,-0.28zm-5.38 3.54l7.88 5.42 -4.83 7.02 -7.88 -5.42 4.83 -7.02z"/>
 </g>
</svg>
