<?xml version="1.0" encoding="UTF-8"?>
<!DOCTYPE svg PUBLIC "-//W3C//DTD SVG 1.1//EN" "http://www.w3.org/Graphics/SVG/1.1/DTD/svg11.dtd">
<!-- Creator: CorelDRAW 2021 (64-Bit) -->
<svg xmlns="http://www.w3.org/2000/svg" xml:space="preserve" width="0.518362in" height="0.628933in" version="1.1" style="shape-rendering:geometricPrecision; text-rendering:geometricPrecision; image-rendering:optimizeQuality; fill-rule:evenodd; clip-rule:evenodd"
viewBox="0 0 25.5 30.94"
 xmlns:xlink="http://www.w3.org/1999/xlink"
 xmlns:xodm="http://www.corel.com/coreldraw/odm/2003">
 <defs>
  <style type="text/css">
   <![CDATA[
    .fil0 {fill:#3F3F46}
   ]]>
  </style>
 </defs>
 <g id="图层_x0020_1">
  <metadata id="CorelCorpID_0Corel-Layer"/>
  <path class="fil0" d="M22.25 1.11l0.51 0.35c2.87,1.97 3.6,5.93 1.63,8.8l-12.34 17.94c-1.97,2.87 -5.93,3.6 -8.8,1.63l-0.51 -0.35c-2.87,-1.97 -3.6,-5.93 -1.63,-8.8l12.34 -17.94c1.97,-2.87 5.93,-3.6 8.8,-1.63zm-11.69 21.13c0.41,0.28 0.52,0.85 0.23,1.26 -0.28,0.41 -0.85,0.52 -1.26,0.23 -0.41,-0.28 -0.52,-0.85 -0.23,-1.26 0.28,-0.41 0.85,-0.52 1.26,-0.23zm10.61 -15.48c0.41,0.28 0.52,0.85 0.23,1.26 -0.28,0.41 -0.85,0.52 -1.26,0.23 -0.41,-0.28 -0.52,-0.85 -0.23,-1.26 0.28,-0.41 0.85,-0.52 1.26,-0.23zm-12.51 18.19c0.41,0.28 0.52,0.85 0.23,1.26 -0.28,0.41 -0.85,0.52 -1.26,0.23 -0.41,-0.28 -0.52,-0.85 -0.23,-1.26 0.28,-0.41 0.85,-0.52 1.26,-0.23zm10.61 -15.48c0.41,0.28 0.52,0.85 0.23,1.26 -0.28,0.41 -0.85,0.52 -1.26,0.23 -0.41,-0.28 -0.52,-0.85 -0.23,-1.26 0.28,-0.41 0.85,-0.52 1.26,-0.23zm-11.95 10.54c0.41,0.28 0.52,0.85 0.23,1.26 -0.28,0.41 -0.85,0.52 -1.26,0.23 -0.41,-0.28 -0.52,-0.85 -0.23,-1.26 0.28,-0.41 0.85,-0.52 1.26,-0.23zm10.61 -15.48c0.41,0.28 0.52,0.85 0.23,1.26 -0.28,0.41 -0.85,0.52 -1.26,0.23 -0.41,-0.28 -0.52,-0.85 -0.23,-1.26 0.28,-0.41 0.85,-0.52 1.26,-0.23zm-12.51 18.19c0.41,0.28 0.52,0.85 0.23,1.26 -0.28,0.41 -0.85,0.52 -1.26,0.23 -0.41,-0.28 -0.52,-0.85 -0.23,-1.26 0.28,-0.41 0.85,-0.52 1.26,-0.23zm10.61 -15.48c0.41,0.28 0.52,0.85 0.23,1.26 -0.28,0.41 -0.85,0.52 -1.26,0.23 -0.41,-0.28 -0.52,-0.85 -0.23,-1.26 0.28,-0.41 0.85,-0.52 1.26,-0.23zm-4.54 2.99l6.65 4.58 -4.08 5.92 -6.65 -4.58 4.08 -5.92z"/>
 </g>
</svg>
