<?xml version="1.0" encoding="UTF-8"?>
<!DOCTYPE svg PUBLIC "-//W3C//DTD SVG 1.1//EN" "http://www.w3.org/Graphics/SVG/1.1/DTD/svg11.dtd">
<!-- Creator: CorelDRAW 2021 (64-Bit) -->
<svg xmlns="http://www.w3.org/2000/svg" xml:space="preserve" width="0.518362in" height="0.628933in" version="1.1" style="shape-rendering:geometricPrecision; text-rendering:geometricPrecision; image-rendering:optimizeQuality; fill-rule:evenodd; clip-rule:evenodd"
viewBox="0 0 28.82 34.97"
 xmlns:xlink="http://www.w3.org/1999/xlink"
 xmlns:xodm="http://www.corel.com/coreldraw/odm/2003">
 <defs>
  <style type="text/css">
   <![CDATA[
    .fil0 {fill:#18181B}
   ]]>
  </style>
 </defs>
 <g id="图层_x0020_1">
  <metadata id="CorelCorpID_0Corel-Layer"/>
  <path class="fil0" d="M25.15 1.25l0.58 0.4c3.24,2.23 4.07,6.71 1.84,9.95l-13.95 20.28c-2.23,3.24 -6.71,4.07 -9.95,1.84l-0.58 -0.4c-3.24,-2.23 -4.07,-6.71 -1.84,-9.95l13.95 -20.28c2.23,-3.24 6.71,-4.07 9.95,-1.84zm-13.22 23.88c0.47,0.32 0.58,0.96 0.26,1.43 -0.32,0.47 -0.96,0.58 -1.43,0.26 -0.47,-0.32 -0.58,-0.96 -0.26,-1.43 0.32,-0.47 0.96,-0.58 1.43,-0.26zm11.99 -17.5c0.47,0.32 0.58,0.96 0.26,1.43 -0.32,0.47 -0.96,0.58 -1.43,0.26 -0.47,-0.32 -0.58,-0.96 -0.26,-1.43 0.32,-0.47 0.96,-0.58 1.43,-0.26zm-14.15 20.57c0.47,0.32 0.58,0.96 0.26,1.43 -0.32,0.47 -0.96,0.58 -1.43,0.26 -0.47,-0.32 -0.58,-0.96 -0.26,-1.43 0.32,-0.47 0.96,-0.58 1.43,-0.26zm11.99 -17.5c0.47,0.32 0.58,0.96 0.26,1.43 -0.32,0.47 -0.96,0.58 -1.43,0.26 -0.47,-0.32 -0.58,-0.96 -0.26,-1.43 0.32,-0.47 0.96,-0.58 1.43,-0.26zm-13.5 11.91c0.47,0.32 0.58,0.96 0.26,1.43 -0.32,0.47 -0.96,0.58 -1.43,0.26 -0.47,-0.32 -0.58,-0.96 -0.26,-1.43 0.32,-0.47 0.96,-0.58 1.43,-0.26zm11.99 -17.5c0.47,0.32 0.58,0.96 0.26,1.43 -0.32,0.47 -0.96,0.58 -1.43,0.26 -0.47,-0.32 -0.58,-0.96 -0.26,-1.43 0.32,-0.47 0.96,-0.58 1.43,-0.26zm-14.15 20.57c0.47,0.32 0.58,0.96 0.26,1.43 -0.32,0.47 -0.96,0.58 -1.43,0.26 -0.47,-0.32 -0.58,-0.96 -0.26,-1.43 0.32,-0.47 0.96,-0.58 1.43,-0.26zm11.99 -17.5c0.47,0.32 0.58,0.96 0.26,1.43 -0.32,0.47 -0.96,0.58 -1.43,0.26 -0.47,-0.32 -0.58,-0.96 -0.26,-1.43 0.32,-0.47 0.96,-0.58 1.43,-0.26zm-5.13 3.38l7.52 5.17 -4.61 6.7 -7.52 -5.17 4.61 -6.7z"/>
 </g>
</svg>
