<?xml version="1.0" encoding="UTF-8"?>
<!DOCTYPE svg PUBLIC "-//W3C//DTD SVG 1.1//EN" "http://www.w3.org/Graphics/SVG/1.1/DTD/svg11.dtd">
<!-- Creator: CorelDRAW 2021 (64-Bit) -->
<svg xmlns="http://www.w3.org/2000/svg" xml:space="preserve" width="0.559055in" height="0.669634in" version="1.1" style="shape-rendering:geometricPrecision; text-rendering:geometricPrecision; image-rendering:optimizeQuality; fill-rule:evenodd; clip-rule:evenodd"
viewBox="0 0 89.42 107.1"
 xmlns:xlink="http://www.w3.org/1999/xlink"
 xmlns:xodm="http://www.corel.com/coreldraw/odm/2003">
 <defs>
  <style type="text/css">
   <![CDATA[
    .fil1 {fill:#3657AD}
    .fil0 {fill:#AED2EB}
   ]]>
  </style>
 </defs>
 <g id="Layer_x0020_1">
  <metadata id="CorelCorpID_0Corel-Layer"/>
  <g id="_1694019288848">
   <path class="fil0" d="M81.68 12.12c8.35,6.65 10.28,18.83 4.14,27.76l-40.12 58.32c-6.42,9.33 -19.29,11.71 -28.62,5.29l-1.67 -1.15c-1.71,-1.18 -3.18,-2.57 -4.41,-4.11 0.37,0.3 0.76,0.58 1.16,0.86l1.67 1.15c9.33,6.42 22.2,4.03 28.62,-5.29l40.12 -58.32c5.24,-7.62 4.61,-17.6 -0.88,-24.5z"/>
   <path class="fil1" d="M72.34 3.6l1.67 1.15c9.33,6.41 11.71,19.29 5.29,28.62l-40.12 58.33c-6.41,9.33 -19.29,11.71 -28.62,5.29l-1.67 -1.15c-9.33,-6.41 -11.71,-19.29 -5.29,-28.62l40.12 -58.33c6.41,-9.33 19.29,-11.71 28.62,-5.29zm-38.02 68.7c1.34,0.92 1.68,2.76 0.76,4.1 -0.92,1.34 -2.76,1.68 -4.1,0.76 -1.34,-0.92 -1.68,-2.76 -0.76,-4.1 0.92,-1.34 2.76,-1.68 4.1,-0.76zm34.49 -50.35c1.34,0.92 1.68,2.76 0.76,4.1 -0.92,1.34 -2.76,1.68 -4.1,0.76 -1.34,-0.92 -1.68,-2.76 -0.76,-4.1 0.92,-1.34 2.76,-1.68 4.1,-0.76zm-40.69 59.16c1.34,0.92 1.68,2.76 0.76,4.1 -0.92,1.34 -2.76,1.68 -4.1,0.76 -1.34,-0.92 -1.68,-2.76 -0.76,-4.1 0.92,-1.34 2.76,-1.68 4.1,-0.76zm34.49 -50.35c1.34,0.92 1.68,2.76 0.76,4.1 -0.92,1.34 -2.76,1.68 -4.1,0.76 -1.34,-0.92 -1.68,-2.76 -0.76,-4.1 0.92,-1.34 2.76,-1.68 4.1,-0.76zm-38.84 34.27c1.34,0.92 1.68,2.76 0.76,4.1 -0.92,1.34 -2.76,1.68 -4.1,0.76 -1.34,-0.92 -1.68,-2.76 -0.76,-4.1 0.92,-1.34 2.76,-1.68 4.1,-0.76zm34.49 -50.35c1.34,0.92 1.68,2.76 0.76,4.1 -0.92,1.34 -2.76,1.68 -4.1,0.76 -1.34,-0.92 -1.68,-2.76 -0.76,-4.1 0.92,-1.34 2.76,-1.68 4.1,-0.76zm-40.69 59.16c1.34,0.92 1.68,2.76 0.76,4.1 -0.92,1.34 -2.76,1.68 -4.1,0.76 -1.34,-0.92 -1.68,-2.76 -0.76,-4.1 0.92,-1.34 2.76,-1.68 4.1,-0.76zm34.49 -50.35c1.34,0.92 1.68,2.76 0.76,4.1 -0.92,1.34 -2.76,1.68 -4.1,0.76 -1.34,-0.92 -1.68,-2.76 -0.76,-4.1 0.92,-1.34 2.76,-1.68 4.1,-0.76zm-14.77 9.73l21.63 14.88 -13.25 19.26 -21.63 -14.88 13.25 -19.26z"/>
  </g>
 </g>
</svg>
