<?xml version="1.0" encoding="UTF-8"?>
<!DOCTYPE svg PUBLIC "-//W3C//DTD SVG 1.1//EN" "http://www.w3.org/Graphics/SVG/1.1/DTD/svg11.dtd">
<!-- Creator: CorelDRAW 2021 (64-Bit) -->
<svg xmlns="http://www.w3.org/2000/svg" xml:space="preserve" width="11.8489in" height="1.28559in" version="1.1" style="shape-rendering:geometricPrecision; text-rendering:geometricPrecision; image-rendering:optimizeQuality; fill-rule:evenodd; clip-rule:evenodd"
viewBox="0 0 8056.29 874.1"
 xmlns:xlink="http://www.w3.org/1999/xlink"
 xmlns:xodm="http://www.corel.com/coreldraw/odm/2003">
 <defs>
  <style type="text/css">
   <![CDATA[
    .fil0 {fill:white;fill-rule:nonzero}
   ]]>
  </style>
 </defs>
 <g id="Layer_x0020_1">
  <metadata id="CorelCorpID_0Corel-Layer"/>
  <polygon class="fil0" points="-0,28.74 124.05,28.74 220.61,453.58 339.41,28.74 444.31,28.74 565.43,453.58 661.83,28.74 786.04,28.74 634.95,694.27 513.83,694.27 391.16,264.02 270.82,694.27 151.4,694.27 "/>
  <path id="_1" class="fil0" d="M1102.28 190.02c46.5,0 90.22,11.59 131.16,34.76 41.09,23.17 72.92,54.53 95.94,94.24 23.02,39.86 34.45,82.65 34.45,128.69 0,46.35 -11.59,89.6 -34.61,129.93 -23.17,40.32 -54.69,71.84 -94.55,94.55 -40.01,22.71 -83.89,34.14 -131.93,34.14 -70.76,0 -131.16,-25.03 -181.06,-75.08 -50.05,-50.21 -75.08,-111.08 -75.08,-182.61 0,-76.78 28.27,-140.74 84.82,-191.88 49.59,-44.49 106.44,-66.74 170.87,-66.74zm1.85 115.87c-38.47,0 -70.45,13.29 -95.94,39.86 -25.49,26.73 -38.31,60.71 -38.31,102.27 0,42.64 12.67,77.25 37.85,103.66 25.18,26.42 57.16,39.7 95.94,39.7 38.62,0 70.76,-13.44 96.56,-40.17 25.64,-26.73 38.47,-61.18 38.47,-103.2 0,-42.17 -12.67,-76.32 -37.85,-102.73 -25.18,-26.26 -57.47,-39.4 -96.71,-39.4z"/>
  <path id="_2" class="fil0" d="M1435.36 202.07l106.6 0 0 62.57c11.43,-24.41 26.57,-42.95 45.42,-55.62 19,-12.67 39.7,-19 62.1,-19 15.91,0 32.6,4.17 50.06,12.67l-38.31 106.6c-14.37,-7.26 -26.27,-10.81 -35.53,-10.81 -18.85,0 -34.92,11.74 -47.89,35.22 -13.13,23.48 -19.62,69.52 -19.62,138.11l0.46 23.95 0 198.52 -123.28 0 0 -492.2z"/>
  <polygon id="_3" class="fil0" points="1761.48,12.05 1884.76,12.05 1884.76,404.91 2067.06,202.07 2221.09,202.07 2010.21,437.05 2247.66,694.27 2094.25,694.27 1884.76,467.33 1884.76,694.27 1761.48,694.27 "/>
  <path id="_4" class="fil0" d="M2920.92 119.27l-93.93 82.81c-32.9,-45.73 -66.43,-68.59 -100.57,-68.59 -16.68,0 -30.28,4.48 -40.79,13.29 -10.66,8.96 -15.91,19 -15.91,30.13 0,11.12 3.71,21.78 11.28,31.67 10.35,13.29 41.41,41.71 93.16,85.43 48.35,40.48 77.71,65.97 88.06,76.47 25.64,25.95 43.88,50.67 54.69,74.31 10.66,23.79 16.07,49.59 16.07,77.55 0,54.69 -18.85,99.65 -56.7,135.33 -37.7,35.53 -86.98,53.3 -147.85,53.3 -47.43,0 -88.68,-11.59 -123.9,-34.76 -35.22,-23.33 -65.5,-59.79 -90.53,-109.53l106.75 -64.27c32.14,58.71 69.06,88.06 110.77,88.06 21.78,0 40.17,-6.33 55,-19 14.83,-12.67 22.24,-27.34 22.24,-43.88 0,-14.98 -5.56,-30.13 -16.84,-45.26 -11.12,-14.99 -35.84,-38.16 -74,-69.21 -72.61,-59.01 -119.42,-104.59 -140.59,-136.72 -21.17,-32.13 -31.82,-64.11 -31.82,-96.09 0,-46.19 17.61,-85.74 52.68,-118.65 35.22,-33.06 78.63,-49.59 130.24,-49.59 33.22,0 64.89,7.72 94.86,23.02 30.13,15.45 62.57,43.41 97.64,84.2z"/>
  <path id="_5" class="fil0" d="M3403.85 202.07l123.28 0 0 492.2 -123.28 0 0 -52.37c-24.1,22.87 -48.35,39.24 -72.61,49.28 -24.25,10.04 -50.67,15.14 -78.94,15.14 -63.81,0 -118.8,-24.57 -165.3,-73.85 -46.5,-49.13 -69.68,-110.3 -69.68,-183.38 0,-75.85 22.56,-137.96 67.51,-186.47 44.95,-48.35 99.49,-72.61 163.76,-72.61 29.66,0 57.31,5.56 83.27,16.53 25.95,10.97 49.9,27.65 71.99,49.59l0 -54.07zm-129.92 101.03c-38.31,0 -70.14,13.44 -95.32,40.48 -25.34,26.88 -38.01,61.49 -38.01,103.66 0,42.48 12.82,77.4 38.62,104.9 25.8,27.34 57.47,41.09 95.17,41.09 38.78,0 71.06,-13.44 96.55,-40.48 25.65,-26.88 38.47,-62.26 38.47,-105.98 0,-42.79 -12.82,-77.4 -38.47,-103.97 -25.49,-26.42 -57.93,-39.71 -97.02,-39.71z"/>
  <path id="_6" class="fil0" d="M3593.1 202.07l43.57 0c0.31,-64.42 1.39,-102.43 3.09,-114.17 3.4,-27.04 14.68,-48.51 33.99,-64.27 19.47,-15.76 46.81,-23.64 82.19,-23.64 25.64,0 54.38,5.87 86.51,17.61l0 93.93c-17.77,-5.1 -32.29,-7.73 -43.72,-7.73 -14.37,0 -24.87,2.94 -31.51,8.96 -4.79,4.48 -7.26,13.9 -7.26,27.96l-0.46 61.33 78.33 0 0 104.74 -77.86 0 0 387.46 -123.28 0 0 -387.46 -43.57 0 0 -104.74z"/>
  <path id="_7" class="fil0" d="M4403.55 482.93l-396.26 0c5.72,35.07 21.01,63.03 45.73,83.89 24.72,20.7 56.39,31.05 94.7,31.05 46.04,0 85.43,-16.22 118.49,-48.66l103.51 48.97c-25.8,36.77 -56.85,63.96 -92.85,81.73 -36.15,17.61 -78.94,26.42 -128.53,26.42 -76.94,0 -139.66,-24.25 -188.01,-72.92 -48.35,-48.51 -72.61,-109.38 -72.61,-182.45 0,-74.93 24.25,-137.19 72.61,-186.62 48.35,-49.59 108.92,-74.31 181.99,-74.31 77.4,0 140.43,24.72 188.94,74 48.51,49.44 72.76,114.47 72.76,195.58l-0.46 23.33zm-122.82 -96.4c-8.19,-26.88 -24.25,-48.82 -48.2,-65.66 -24.1,-16.84 -51.91,-25.18 -83.73,-25.18 -34.45,0 -64.58,9.43 -90.69,28.43 -16.22,11.74 -31.36,32.6 -45.27,62.41l267.88 0z"/>
  <polygon id="_8" class="fil0" points="4519.11,20.39 4642.39,20.39 4642.39,202.07 4715.62,202.07 4715.62,308.67 4642.39,308.67 4642.39,694.27 4519.11,694.27 4519.11,308.67 4456.08,308.67 4456.08,202.07 4519.11,202.07 "/>
  <polygon id="_9" class="fil0" points="4727.21,202.07 4853.89,202.07 4981.34,510.28 5122.55,202.07 5248.92,202.07 4941.02,874.1 4814.65,874.1 4914.76,657.97 "/>
  <polygon id="_10" class="fil0" points="5583.85,28.74 5709.91,28.74 5709.91,694.27 5583.85,694.27 "/>
  <path id="_11" class="fil0" d="M5838.6 202.07l123.28 0 0 50.67c27.96,-23.48 53.45,-39.71 76.16,-48.97 22.71,-9.11 46.04,-13.75 69.83,-13.75 48.82,0 90.38,17 124.36,50.98 28.58,29.04 42.95,71.84 42.95,128.38l0 324.89 -122.36 0 0 -215.2c0,-58.71 -2.63,-97.64 -7.88,-116.8 -5.25,-19.31 -14.52,-33.99 -27.5,-44.03 -13.13,-10.04 -29.35,-15.14 -48.51,-15.14 -25.03,0 -46.5,8.34 -64.42,25.03 -17.92,16.68 -30.28,39.86 -37.23,69.21 -3.55,15.45 -5.41,48.66 -5.41,99.8l0 197.13 -123.28 0 0 -492.2z"/>
  <path id="_12" class="fil0" d="M6759.2 12.05l123.28 0 0 682.22 -123.28 0 0 -52.37c-24.1,22.87 -48.35,39.24 -72.61,49.28 -24.25,10.04 -50.67,15.14 -78.95,15.14 -63.81,0 -118.8,-24.57 -165.3,-73.85 -46.5,-49.13 -69.68,-110.3 -69.68,-183.38 0,-75.85 22.56,-137.96 67.51,-186.47 44.95,-48.35 99.49,-72.61 163.76,-72.61 29.66,0 57.32,5.56 83.27,16.53 25.95,11.12 49.9,27.81 71.99,49.9l0 -244.4zm-129.93 291.06c-38.31,0 -70.14,13.44 -95.32,40.48 -25.34,26.88 -38.01,61.49 -38.01,103.66 0,42.48 12.82,77.4 38.62,104.9 25.8,27.34 57.47,41.09 95.17,41.09 38.78,0 71.07,-13.44 96.56,-40.48 25.65,-26.88 38.47,-62.26 38.47,-105.98 0,-42.79 -12.82,-77.4 -38.47,-103.97 -25.49,-26.42 -57.93,-39.71 -97.02,-39.71z"/>
  <path id="_13" class="fil0" d="M7499.51 482.93l-396.26 0c5.72,35.07 21.01,63.03 45.73,83.89 24.72,20.7 56.39,31.05 94.7,31.05 46.04,0 85.43,-16.22 118.49,-48.66l103.51 48.97c-25.8,36.77 -56.85,63.96 -92.85,81.73 -36.15,17.61 -78.94,26.42 -128.53,26.42 -76.94,0 -139.66,-24.25 -188.01,-72.92 -48.35,-48.51 -72.61,-109.38 -72.61,-182.45 0,-74.93 24.25,-137.19 72.61,-186.62 48.35,-49.59 108.92,-74.31 181.99,-74.31 77.4,0 140.43,24.72 188.94,74 48.51,49.44 72.76,114.47 72.76,195.58l-0.46 23.33zm-122.82 -96.4c-8.19,-26.88 -24.25,-48.82 -48.2,-65.66 -24.1,-16.84 -51.91,-25.18 -83.73,-25.18 -34.45,0 -64.58,9.43 -90.69,28.43 -16.22,11.74 -31.36,32.6 -45.27,62.41l267.88 0z"/>
  <polygon id="_14" class="fil0" points="7555.74,202.07 7699.26,202.07 7796.59,336.17 7893.46,202.07 8034.97,202.07 7867.5,433.96 8056.29,694.27 7912.77,694.27 7795.97,533.14 7679.64,694.27 7538.13,694.27 7724.91,435.35 "/>
 </g>
</svg>
