<?xml version="1.0" encoding="UTF-8"?>
<!DOCTYPE svg PUBLIC "-//W3C//DTD SVG 1.1//EN" "http://www.w3.org/Graphics/SVG/1.1/DTD/svg11.dtd">
<!-- Creator: CorelDRAW 2021 (64-Bit) -->
<svg xmlns="http://www.w3.org/2000/svg" xml:space="preserve" width="0.440657in" height="0.499087in" version="1.1" style="shape-rendering:geometricPrecision; text-rendering:geometricPrecision; image-rendering:optimizeQuality; fill-rule:evenodd; clip-rule:evenodd"
viewBox="0 0 56.91 64.46"
 xmlns:xlink="http://www.w3.org/1999/xlink"
 xmlns:xodm="http://www.corel.com/coreldraw/odm/2003">
 <defs>
  <style type="text/css">
   <![CDATA[
    .fil1 {fill:#3657AD}
    .fil0 {fill:#AED2EB}
   ]]>
  </style>
 </defs>
 <g id="Layer_x0020_1">
  <metadata id="CorelCorpID_0Corel-Layer"/>
  <g id="_1694019224720">
   <path class="fil0" d="M40.89 15.41l0 8.3 15.28 29.06c0.51,0.97 0.74,2.09 0.74,3.24 0,1.34 -0.33,2.85 -0.9,4.15 -0.68,1.56 -1.76,2.93 -3.17,3.67 -0.76,0.4 -1.58,0.62 -2.46,0.62l-38.89 0c-0.87,0 -1.69,-0.22 -2.46,-0.62 -1.05,-0.55 -1.93,-1.46 -2.58,-2.54l0.1 0.05c0.76,0.4 1.58,0.62 2.45,0.62l38.89 0c0.87,0 1.69,-0.22 2.46,-0.62 1.41,-0.74 2.49,-2.11 3.17,-3.67 0.57,-1.3 0.9,-2.81 0.9,-4.15 0,-1.14 -0.23,-2.27 -0.74,-3.24l-15.28 -29.06 0 -8.3 3.05 -2.49 0 -6.71 2.49 0 0 9.2 -3.05 2.49z"/>
   <path class="fil1" d="M35.91 11.68l0 8.3 15.28 29.06c0.51,0.97 0.74,2.09 0.74,3.24 0,1.34 -0.33,2.85 -0.9,4.15 -0.68,1.56 -1.76,2.93 -3.17,3.67 -0.76,0.4 -1.58,0.62 -2.46,0.62l-38.89 0c-0.87,0 -1.69,-0.22 -2.46,-0.62 -1.4,-0.74 -2.49,-2.11 -3.17,-3.67 -0.57,-1.3 -0.9,-2.81 -0.9,-4.15 0,-1.14 0.23,-2.27 0.74,-3.24l14.88 -28.3 0 -8.83 -3.77 -2.49 0 -9.43 27.12 0 0 9.2 -3.05 2.49zm-32.04 39.51l13.87 -26.48 1.61 -3.06 0 -11.72 -3.77 -2.49 0 -3.71 19.66 0 0 3.71 -3.05 2.49 0 10.84c0.14,0.29 0.25,0.6 0.4,0.89l1.61 3.06 -13.78 0 -14.16 28.33c-0.35,0.7 -0.4,2.45 -0.21,3.88 -1.64,-0.56 -2.72,-3.91 -2.17,-5.73z"/>
  </g>
 </g>
</svg>
