<?xml version="1.0" encoding="UTF-8"?>
<!DOCTYPE svg PUBLIC "-//W3C//DTD SVG 1.1//EN" "http://www.w3.org/Graphics/SVG/1.1/DTD/svg11.dtd">
<!-- Creator: CorelDRAW 2021 (64-Bit) -->
<svg xmlns="http://www.w3.org/2000/svg" xml:space="preserve" width="3.22917in" height="1.45833in" version="1.1" style="shape-rendering:geometricPrecision; text-rendering:geometricPrecision; image-rendering:optimizeQuality; fill-rule:evenodd; clip-rule:evenodd"
viewBox="0 0 1172.52 529.53"
 xmlns:xlink="http://www.w3.org/1999/xlink"
 xmlns:xodm="http://www.corel.com/coreldraw/odm/2003">
 <defs>
  <style type="text/css">
   <![CDATA[
    .fil0 {fill:black}
   ]]>
  </style>
 </defs>
 <g id="Layer_x0020_1">
  <metadata id="CorelCorpID_0Corel-Layer"/>
  <path class="fil0" d="M-0 0l1172.52 0 0 529.53 -1172.52 0 0 -529.53zm987.16 497.74l0 -199.14 38.02 0 0 199.14 40.61 0 0 -116.13 38.02 0 0 116.13 36.91 0 0 -465.94 -1108.94 0 0 465.94 118.6 0 -76.9 -338.05 66.25 0 51.57 226.88 63.45 -226.88 56.02 0 64.68 226.88 51.48 -226.88 66.33 0 -76.75 338.05 136.77 0c-14.49,-12.26 -27.21,-29.17 -38.08,-50.78l57.01 -34.32c17.16,31.35 36.88,47.03 59.16,47.03 11.63,0 21.45,-3.38 29.37,-10.15 7.92,-6.76 11.88,-14.6 11.88,-23.43 0,-8 -2.97,-16.09 -8.99,-24.17 -5.94,-8 -19.14,-20.38 -39.52,-36.96 -38.78,-31.52 -63.77,-55.86 -75.08,-73.02 -11.3,-17.16 -17,-34.24 -17,-51.32 0,-24.67 9.4,-45.79 28.13,-63.36 18.81,-17.66 41.99,-26.48 69.55,-26.48 17.74,0 34.65,4.12 50.66,12.29 16.09,8.25 33.41,23.18 52.14,44.96l-50.16 44.22c-17.57,-24.42 -35.48,-36.63 -53.71,-36.63 -8.91,0 -16.17,2.39 -21.78,7.1 -5.69,4.78 -8.5,10.15 -8.5,16.09 0,5.94 1.98,11.63 6.02,16.91 5.53,7.09 22.11,22.28 49.75,45.62 25.82,21.62 41.5,35.23 47.03,40.84 13.7,13.86 23.43,27.06 29.21,39.68 5.69,12.71 8.58,26.48 8.58,41.42 0,29.21 -10.07,53.21 -30.28,72.27 -0.79,0.74 -1.59,1.47 -2.39,2.18l92.07 0 0 -338.05 67.32 0 0 338.05 42.84 0 0 -116.13 38.02 0 0 116.13 40.61 0zm-644.22 0l-60.56 -212.4 -59.41 212.4 119.97 0z"/>
 </g>
</svg>
