<?xml version="1.0" encoding="UTF-8"?>
<!DOCTYPE svg PUBLIC "-//W3C//DTD SVG 1.1//EN" "http://www.w3.org/Graphics/SVG/1.1/DTD/svg11.dtd">
<!-- Creator: CorelDRAW 2021 (64-Bit) -->
<svg xmlns="http://www.w3.org/2000/svg" xml:space="preserve" width="3.22917in" height="1.45833in" version="1.1" style="shape-rendering:geometricPrecision; text-rendering:geometricPrecision; image-rendering:optimizeQuality; fill-rule:evenodd; clip-rule:evenodd"
viewBox="0 0 1130.57 510.58"
 xmlns:xlink="http://www.w3.org/1999/xlink"
 xmlns:xodm="http://www.corel.com/coreldraw/odm/2003">
 <defs>
  <style type="text/css">
   <![CDATA[
    .fil0 {fill:white}
   ]]>
  </style>
 </defs>
 <g id="Layer_x0020_1">
  <metadata id="CorelCorpID_0Corel-Layer"/>
  <path class="fil0" d="M-0 0l1130.57 0 0 510.58 -1130.57 0 0 -510.58zm951.84 479.93l0 -192.02 36.66 0 0 192.02 39.16 0 0 -111.98 36.66 0 0 111.98 35.59 0 0 -449.27 -1069.26 0 0 449.27 114.36 0 -74.15 -325.96 63.88 0 49.72 218.77 61.18 -218.77 54.02 0 62.37 218.77 49.64 -218.77 63.96 0 -74 325.96 131.88 0c-13.97,-11.83 -26.24,-28.13 -36.72,-48.96l54.97 -33.09c16.55,30.23 35.56,45.35 57.04,45.35 11.22,0 20.68,-3.26 28.32,-9.79 7.64,-6.52 11.45,-14.08 11.45,-22.59 0,-7.72 -2.86,-15.51 -8.67,-23.31 -5.73,-7.72 -18.46,-19.65 -38.11,-35.64 -37.39,-30.39 -61.49,-53.86 -72.39,-70.4 -10.9,-16.55 -16.39,-33.01 -16.39,-49.48 0,-23.79 9.07,-44.15 27.13,-61.09 18.14,-17.02 40.49,-25.54 67.06,-25.54 17.1,0 33.41,3.98 48.84,11.85 15.51,7.95 32.22,22.35 50.28,43.36l-48.37 42.64c-16.94,-23.55 -34.21,-35.32 -51.79,-35.32 -8.59,0 -15.59,2.31 -21,6.84 -5.49,4.61 -8.19,9.78 -8.19,15.51 0,5.73 1.91,11.22 5.81,16.31 5.33,6.84 21.32,21.48 47.97,43.99 24.9,20.84 40.01,33.97 45.34,39.38 13.21,13.36 22.59,26.09 28.16,38.26 5.49,12.25 8.27,25.54 8.27,39.93 0,28.16 -9.71,51.31 -29.2,69.69 -0.76,0.72 -1.53,1.42 -2.31,2.1l88.78 0 0 -325.96 64.91 0 0 325.96 41.31 0 0 -111.98 36.66 0 0 111.98 39.16 0zm-621.17 0l-58.39 -204.8 -57.28 204.8 115.67 0z"/>
 </g>
</svg>
